# xmcd CD database file
#
# Track frame offsets:
#	150
#	18820
#	28838
#
# Disc length: 617 seconds
#
# Revision: 0
# Processed by: cddbd v1.5.1PL0 Copyright (c) Steve Scherf et al.
# Submitted via: CDex 1.51
#
DISCID=18026703
DTITLE=ZIGZO - 血と汗と涙の裏側のハッピー
DYEAR=2000
DGENRE=ロック (日本)
TTITLE0=血と汗と涙の裏側のハッピー
TTITLE1=Peak!
TTITLE2=ファッションモンスター2
EXTD=YEAR: 2000
EXTT0=
EXTT1=
EXTT2=
PLAYORDER=
